<?xml version="1.0" encoding="utf-8"?>
<!-- Generator: Adobe Illustrator 21.0.2, SVG Export Plug-In . SVG Version: 6.00 Build 0)  -->
<svg version="1.1" id="address" xmlns="http://www.w3.org/2000/svg" xmlns:xlink="http://www.w3.org/1999/xlink" x="0px" y="0px"
	 viewBox="0 0 334.3 334.3" style="enable-background:new 0 0 334.3 334.3;" xml:space="preserve">
<style type="text/css">
	.st0{fill:none;}
	.st1{fill:#AFC1AC;}
</style>
<g>
	<g>
		<path class="st0" d="M167.2,15C104.7,15,53.9,65.8,53.9,128.3c0,25.6,20.4,67.1,58.9,119.8c22.1,30.2,44.3,56.1,54.4,67.6
			c10.1-11.4,32.4-37.4,54.4-67.6c38.5-52.7,58.9-94.1,58.9-119.8C280.4,65.8,229.6,15,167.2,15z M230.2,165.2
			c-11.8,17.8-31.8,34-59.6,48.3c-1.1,0.6-2.3,0.8-3.4,0.8c-1.2,0-2.4-0.3-3.4-0.8c-27.8-14.3-47.9-30.6-59.6-48.3
			c-13.1-19.7-12.8-36.4-10.3-46.9c4.9-20.2,22.8-34.9,42.6-34.9c11.6,0,22.3,4.9,30.7,13.9c8.4-9.1,19.1-13.9,30.7-13.9
			c19.8,0,37.7,14.7,42.6,34.9C243,128.8,243.3,145.5,230.2,165.2z"/>
		<path class="st1" d="M197.9,83.4c-11.6,0-22.3,4.9-30.7,13.9c-8.4-9.1-19.1-13.9-30.7-13.9c-19.8,0-37.7,14.7-42.6,34.9
			c-2.5,10.5-2.8,27.2,10.3,46.9c11.8,17.8,31.8,34,59.6,48.3c1.1,0.6,2.3,0.8,3.4,0.8c1.2,0,2.4-0.3,3.4-0.8
			c27.8-14.3,47.9-30.6,59.6-48.3c13.1-19.7,12.8-36.4,10.3-46.9C235.6,98.1,217.7,83.4,197.9,83.4z M108.4,121.8
			c3.3-13.6,15.1-23.4,28-23.4c9.5,0,18.1,5.4,24.4,15.2c1.4,2.2,3.8,3.5,6.3,3.5c2.6,0,4.9-1.3,6.3-3.5
			c6.3-9.8,14.9-15.2,24.4-15.2c13,0,24.7,9.9,28,23.4c6.1,25.1-15.8,53.6-58.7,76.6C124.2,175.4,102.3,147,108.4,121.8z"/>
		<path class="st1" d="M167.2,0C96.4,0,38.9,57.5,38.9,128.3c0,68.8,117.7,198.2,122.7,203.6c1.4,1.6,3.4,2.4,5.5,2.4
			c2.1,0,4.1-0.9,5.5-2.4c5-5.5,122.7-134.8,122.7-203.6C295.4,57.5,237.9,0,167.2,0z M280.4,128.3c0,25.6-20.4,67.1-58.9,119.8
			c-22.1,30.2-44.3,56.1-54.4,67.6c-10.1-11.4-32.4-37.4-54.4-67.6c-38.5-52.7-58.9-94.1-58.9-119.8C53.9,65.8,104.7,15,167.2,15
			S280.4,65.8,280.4,128.3z"/>
	</g>
</g>
</svg>
