<svg id="dinner" data-name="dinner" xmlns="http://www.w3.org/2000/svg" viewBox="0 0 354.7 264.99"><defs><style>.cls-1{fill:none;}.cls-2{fill:#afc1ac;}</style></defs><title>dinner</title><path class="cls-1" d="M180.5,73.1A104.3,104.3,0,1,0,284.8,177.4,104.43,104.43,0,0,0,180.5,73.1Zm0,188.7a84.4,84.4,0,1,1,84.4-84.4A84.48,84.48,0,0,1,180.5,261.8Z" transform="translate(0 -44.81)"/><path class="cls-2" d="M349.8,45.3a7.48,7.48,0,0,0-8.3,2.1c-1.1,1.3-27.7,32.1-29.6,77.4-1.2,28.7-1.2,46.8,9.2,57,4.5,4.5,10.5,6.9,18.6,7.5v113a7.5,7.5,0,0,0,15,0V52.3A7.57,7.57,0,0,0,349.8,45.3ZM339.7,174.2c-3.7-.4-6.4-1.5-8.1-3.1-5.9-5.8-5.6-23.4-4.7-45.7.8-19.1,6.8-35.6,12.8-47.5v96.3Z" transform="translate(0 -44.81)"/><path class="cls-2" d="M180.5,58.1A119.3,119.3,0,1,0,299.8,177.4,119.41,119.41,0,0,0,180.5,58.1Zm0,223.5A104.3,104.3,0,1,1,284.8,177.3,104.43,104.43,0,0,1,180.5,281.6Z" transform="translate(0 -44.81)"/><path class="cls-2" d="M180.5,92.9a84.4,84.4,0,1,0,84.4,84.4A84.48,84.48,0,0,0,180.5,92.9Zm0,153.9a69.4,69.4,0,1,1,69.4-69.4A69.5,69.5,0,0,1,180.5,246.8Z" transform="translate(0 -44.81)"/><path class="cls-2" d="M52.1,46.7a7.55,7.55,0,0,0-7.5,7.5V89.7H37.3V54.2a7.5,7.5,0,0,0-15,0V89.7H15V54.2a7.5,7.5,0,0,0-15,0v43c0,26.2,9.2,46.9,22.3,52.6V300.5a7.5,7.5,0,0,0,15,0V149.8c13.1-5.7,22.3-26.5,22.3-52.6v-43A7.43,7.43,0,0,0,52.1,46.7ZM29.8,136.4c-5.2,0-12.9-12.4-14.5-31.7h29C42.7,124,35,136.4,29.8,136.4Z" transform="translate(0 -44.81)"/></svg>