<svg id="Layer_1" data-name="Layer 1" xmlns="http://www.w3.org/2000/svg" viewBox="0 0 2499.58 2441"><defs><style>.cls-1{fill:#475a96;}.cls-2{fill:#fff;}</style></defs><title>fb-icon</title><path class="cls-1" d="M-603.19-549.48H1896.4v2441H-603.19Z" transform="translate(603.19 549.48)"/><path class="cls-2" d="M1231.06,0H71.91A71.9,71.9,0,0,0,0,71.91V1231.06A71.91,71.91,0,0,0,71.91,1303H696V798.4H526.16V601.75H696v-145c0-168.3,102.79-259.94,252.92-259.94,71.91,0,133.72,5.36,151.73,7.75V380.42l-104.12,0c-81.65,0-97.46,38.8-97.46,95.73V601.75h194.73L1068.41,798.4H899V1303h332a71.92,71.92,0,0,0,71.91-71.91V71.91A71.91,71.91,0,0,0,1231.06,0Z" transform="translate(603.19 549.48)"/></svg>