<svg id="invite-details" data-name="invite-details" xmlns="http://www.w3.org/2000/svg" viewBox="0 0 348.8 344.8"><defs><style>.cls-1{fill:none;}.cls-2{fill:#afc1ac;}</style></defs><title>invite-details</title><path class="cls-1" d="M174.4,243.5c40.5-23.3,38.7-44.9,37.1-51.1-2.1-8.1-8.9-13.9-16.2-13.9-5.6,0-10.7,3.4-14.5,9.7a7.64,7.64,0,0,1-6.4,3.6h0a7.51,7.51,0,0,1-6.4-3.6c-3.8-6.3-8.8-9.7-14.5-9.7-7.3,0-14.2,5.8-16.2,13.9C135.7,198.6,133.9,220.2,174.4,243.5Z" transform="translate(0 -2)"/><path class="cls-1" d="M318.7,50h-9V77.1a25.2,25.2,0,0,1-50.4,0V50H199.6V77.1a25.2,25.2,0,1,1-50.4,0V50H89.5V77.1a25.2,25.2,0,1,1-50.4,0V50h-9A15.17,15.17,0,0,0,15,65.2v51.1H333.8V65.2A15.17,15.17,0,0,0,318.7,50Z" transform="translate(0 -2)"/><path class="cls-2" d="M318.7,35h-9V27.2a25.2,25.2,0,0,0-50.4,0V35H199.6V27.2a25.2,25.2,0,1,0-50.4,0V35H89.5V27.2a25.2,25.2,0,1,0-50.4.1V35h-9A30.15,30.15,0,0,0,0,65.2V316.7a30.13,30.13,0,0,0,30.1,30.1H318.7a30.13,30.13,0,0,0,30.1-30.1V65.2A30.15,30.15,0,0,0,318.7,35Zm15.1,81.3H15V65.2A15.17,15.17,0,0,1,30.1,50h9V77.1a25.2,25.2,0,1,0,50.4,0V50h59.7V77.1a25.2,25.2,0,1,0,50.4,0V50h59.7V77.1a25.2,25.2,0,0,0,50.4,0V50h9a15.15,15.15,0,0,1,15.1,15.1v51.2Zm-59.5-89a10.2,10.2,0,0,1,20.4,0V77.2a10.2,10.2,0,0,1-20.4,0Zm-110.1,0a10.2,10.2,0,1,1,20.4,0V77.2a10.2,10.2,0,1,1-20.4,0Zm-110.1,0a10.2,10.2,0,1,1,20.4,0V77.2a10.2,10.2,0,0,1-20.4,0C54.1,77.1,54.1,27.3,54.1,27.3ZM333.8,316.7a15.15,15.15,0,0,1-15.1,15.1H30.1A15.15,15.15,0,0,1,15,316.7V131.3H333.8Z" transform="translate(0 -2)"/><path class="cls-2" d="M44.5,183.3H94.4a7.5,7.5,0,0,0,0-15H44.5a7.5,7.5,0,0,0,0,15Z" transform="translate(0 -2)"/><path class="cls-2" d="M44.5,293.2H94.4a7.5,7.5,0,0,0,0-15H44.5a7.5,7.5,0,0,0,0,15Z" transform="translate(0 -2)"/><path class="cls-2" d="M44.5,238.3H94.4a7.5,7.5,0,0,0,0-15H44.5a7.5,7.5,0,0,0,0,15Z" transform="translate(0 -2)"/><path class="cls-2" d="M254.4,183.3h49.9a7.5,7.5,0,0,0,0-15H254.4a7.5,7.5,0,0,0,0,15Z" transform="translate(0 -2)"/><path class="cls-2" d="M254.4,293.2h49.9a7.5,7.5,0,0,0,0-15H254.4a7.5,7.5,0,1,0,0,15Z" transform="translate(0 -2)"/><path class="cls-2" d="M254.4,238.3h49.9a7.5,7.5,0,0,0,0-15H254.4a7.5,7.5,0,0,0,0,15Z" transform="translate(0 -2)"/><path class="cls-2" d="M199.4,278.2H149.5a7.5,7.5,0,0,0,0,15h49.9a7.5,7.5,0,0,0,0-15Z" transform="translate(0 -2)"/><path class="cls-2" d="M170.8,258.7a7.65,7.65,0,0,0,7.2,0c19.3-10.5,33.2-22.4,41.3-35.3,9.2-14.6,8.8-26.9,6.8-34.6-3.8-14.8-16.4-25.2-30.8-25.2a29.91,29.91,0,0,0-20.9,8.8,29.91,29.91,0,0,0-20.9-8.8c-14.3,0-27,10.4-30.7,25.2-2,7.7-2.4,20,6.8,34.6C137.7,236.3,151.5,248.2,170.8,258.7Zm-33.5-66.3c2.1-8.1,8.9-13.9,16.2-13.9,5.6,0,10.6,3.3,14.5,9.7a7.64,7.64,0,0,0,6.4,3.6h0a7.51,7.51,0,0,0,6.4-3.6c3.8-6.2,8.9-9.7,14.5-9.7,7.3,0,14.2,5.8,16.2,13.9,1.6,6.2,3.4,27.7-37.1,51.1C133.9,220.2,135.7,198.6,137.3,192.4Z" transform="translate(0 -2)"/></svg>