<?xml version="1.0" encoding="utf-8"?>
<!-- Generator: Adobe Illustrator 21.0.2, SVG Export Plug-In . SVG Version: 6.00 Build 0)  -->
<svg version="1.1" id="login" xmlns="http://www.w3.org/2000/svg" xmlns:xlink="http://www.w3.org/1999/xlink" x="0px" y="0px"
	 viewBox="0 0 385.1 385.1" style="enable-background:new 0 0 385.1 385.1;" xml:space="preserve">
<style type="text/css">
	.st0{fill:none;}
	.st1{fill:#AFC1AC;}
</style>
<g>
	<g>
		<g>
			<path class="st0" d="M192.6,194.9c-8.8,0-16,7.2-16,16c0,6.2,3.7,11.9,9.4,14.5c3.1,1.4,4.9,4.8,4.3,8.2l-9.3,48.9h23.2
				l-9.3-48.9c-0.6-3.4,1.1-6.8,4.3-8.2c5.7-2.6,9.4-8.3,9.4-14.5C208.5,202.1,201.4,194.9,192.6,194.9z"/>
			<g>
				<path class="st1" d="M223.5,210.8c0-17.1-13.9-31-31-31c-17.1,0-31,13.9-31,31c0,10.1,4.9,19.4,12.9,25.1l-10,52.6
					c-0.4,2.2,0.2,4.5,1.6,6.2c1.4,1.7,3.5,2.7,5.8,2.7h41.3c2.2,0,4.4-1,5.8-2.7c1.4-1.7,2-4,1.6-6.2l-10-52.6
					C218.6,230.2,223.5,220.9,223.5,210.8z M199.2,225.4c-3.1,1.4-4.9,4.8-4.3,8.2l9.3,48.9H181l9.3-48.9c0.6-3.4-1.1-6.8-4.3-8.2
					c-5.7-2.6-9.4-8.3-9.4-14.5c0-8.8,7.2-16,16-16c8.8,0,16,7.2,16,16C208.5,217.1,204.9,222.8,199.2,225.4z"/>
			</g>
		</g>
		<g>
			<path class="st0" d="M285.6,108.4c8.4,1.6,16.5,4.3,24.1,8C301.4,58.8,251.6,15,192.6,15c-59,0-108.9,43.9-117.2,101.4
				c7.4-3.6,15.3-6.3,23.6-7.9c11.2-42.3,49.3-71.7,93.3-71.7C236,36.8,274.4,66.6,285.6,108.4z"/>
			<path class="st1" d="M104.5,140.4c-31.7,7.6-50.4,38-45.6,74c2.3,16.8,10.2,33.6,23.8,50.1c1.5,1.8,3.6,2.7,5.8,2.7
				c1.7,0,3.4-0.6,4.8-1.7c3.2-2.6,3.7-7.4,1-10.6c-11.7-14.3-18.6-28.6-20.5-42.6C70,184.3,84.1,160.7,108,155c4-1,6.5-5,5.6-9
				C112.6,141.9,108.5,139.5,104.5,140.4z"/>
			<path class="st1" d="M361.1,180c-5.1-22-18.1-40.8-35.5-53.9c0.1-0.5,0.1-1.1,0.1-1.7c-2.3-33.7-17.1-65-41.8-88.2
				C259,12.8,226.6,0,192.6,0c-34,0-66.3,12.8-91.1,36c-24.7,23.1-39.6,54.3-41.9,87.9c-0.1,0.7,0,1.4,0.2,2.1
				c-17.5,13.1-30.5,32-35.6,54c-5.1,21.9-4.8,56.6,25.3,98.3c27.8,38.5,74.9,74.2,139.9,106.1c1,0.5,2.2,0.8,3.3,0.8
				c1.1,0,2.3-0.3,3.3-0.8c65.1-32,112.2-67.7,140-106.1C365.9,236.6,366.2,201.8,361.1,180z M192.3,36.8c-44,0-82.1,29.4-93.3,71.7
				c-8.2,1.6-16.2,4.3-23.6,7.9C83.7,58.9,133.6,15,192.6,15c59.1,0,108.9,43.8,117.2,101.4c-7.6-3.7-15.7-6.4-24.1-8
				C274.4,66.6,236,36.8,192.3,36.8z M192.3,51.8c35,0,65.9,22.6,77.1,54.9c-0.5,0-0.9,0-1.4,0c-29.3,0-55.7,13.4-75.5,38.1
				c-19.7-24.6-46.2-38.1-75.4-38.1c-0.7,0-1.3,0-2,0C126.4,74,157,51.8,192.3,51.8z M192.5,369.3C81.9,314.1,24.4,244.8,38.7,183.4
				c8.3-35.7,41.3-61.7,78.4-61.7c27.3,0,51.9,14.2,69.2,39.9c1.4,2.1,3.7,3.3,6.2,3.3l0,0c2.5,0,4.8-1.2,6.2-3.3
				c17.3-25.7,41.9-39.9,69.2-39.9c37.2,0,70.2,25.9,78.5,61.7C360.7,244.8,303.2,314.1,192.5,369.3z"/>
		</g>
	</g>
</g>
</svg>

