<svg id="music" data-name="music" xmlns="http://www.w3.org/2000/svg" viewBox="0 0 306.7 357.79"><defs><style>.cls-1{fill:none;}.cls-2{fill:#afc1ac;}</style></defs><title>music</title><path class="cls-1" d="M119.25,288c-2.18-8.53-9.41-14.73-17.21-14.73-5.91,0-11.37,3.64-15.38,10.24a7.5,7.5,0,0,1-6.41,3.61h0a7.5,7.5,0,0,1-6.41-3.61c-4-6.61-9.46-10.24-15.36-10.24-7.79,0-15,6.19-17.2,14.73-1.66,6.51-3.57,29.2,39,53.67C122.81,317.23,120.9,294.53,119.25,288Z" transform="translate(-25.54 0)"/><path class="cls-1" d="M316.52,251.28c-2.18-8.53-9.41-14.73-17.2-14.73-5.91,0-11.37,3.64-15.37,10.24a7.5,7.5,0,0,1-6.41,3.61h0a7.5,7.5,0,0,1-6.41-3.62c-4-6.6-9.46-10.24-15.37-10.24-7.79,0-15,6.19-17.2,14.73-1.66,6.51-3.57,29.2,39,53.67C320.08,280.48,318.18,257.79,316.52,251.28Z" transform="translate(-25.54 0)"/><path class="cls-2" d="M332.23,256.22V7.5a8.47,8.47,0,0,0-.65-3.05,7.49,7.49,0,0,0-9.9-3.8L124.41,88.51a7.5,7.5,0,0,0-4.45,7h0V264a30.47,30.47,0,0,0-39.71,3.58,30.94,30.94,0,0,0-21.78-9.31c-14.78,0-27.82,10.7-31.73,26-2,8-2.47,20.69,7,35.84,8.42,13.43,22.85,25.78,42.89,36.71a7.5,7.5,0,0,0,7.18,0c20-10.93,34.48-23.28,42.9-36.71,6.58-10.49,8.39-19.81,8.22-27.2V178.34l182.27-81V227.29a30.47,30.47,0,0,0-39.71,3.58,30.94,30.94,0,0,0-21.78-9.31c-14.77,0-27.82,10.7-31.73,26-2,8-2.47,20.69,7,35.84,8.42,13.43,22.85,25.78,42.89,36.71a7.5,7.5,0,0,0,7.18,0c20-10.93,34.48-23.28,42.9-36.71C330.6,272.92,332.41,263.61,332.23,256.22ZM41.27,288c2.18-8.53,9.41-14.73,17.2-14.73,5.91,0,11.36,3.64,15.36,10.24a7.5,7.5,0,0,0,6.41,3.61h0a7.5,7.5,0,0,0,6.41-3.61c4-6.61,9.46-10.24,15.37-10.24,7.79,0,15,6.19,17.21,14.73,1.66,6.51,3.56,29.2-39,53.67C37.71,317.23,39.62,294.53,41.27,288Zm197.27-36.75c2.18-8.53,9.41-14.73,17.2-14.73,5.91,0,11.36,3.64,15.36,10.24a7.5,7.5,0,0,0,6.41,3.62h0a7.5,7.5,0,0,0,6.41-3.61c4-6.61,9.46-10.24,15.38-10.24,7.79,0,15,6.19,17.2,14.73,1.66,6.51,3.56,29.2-39,53.67C235,280.48,236.89,257.79,238.54,251.28ZM135,161.93v-61.7L317.23,19.05V80.94Z" transform="translate(-25.54 0)"/></svg>