<?xml version="1.0" encoding="utf-8"?>
<!-- Generator: Adobe Illustrator 21.0.2, SVG Export Plug-In . SVG Version: 6.00 Build 0)  -->
<svg version="1.1" id="party" name="party" xmlns="http://www.w3.org/2000/svg" xmlns:xlink="http://www.w3.org/1999/xlink" x="0px" y="0px"
	 viewBox="0 0 424.9 424.9" style="enable-background:new 0 0 424.9 424.9;" xml:space="preserve">
<style type="text/css">
	.st0{fill:none;}
	.st1{fill:#AFC1AC;}
</style>
<g>
	<g>
		<path class="st0" d="M174.9,263.9l19.3-111.5l-68.5-11.9L106.4,252c-3.3,18.9,9.4,36.9,28.3,40.2c2,0.3,4,0.5,6,0.5
			C157.6,292.7,172,280.6,174.9,263.9z M166.1,165.6c1.4-1.4,3.3-2.2,5.3-2.2c2,0,3.9,0.8,5.3,2.2c1.4,1.4,2.2,3.3,2.2,5.3
			c0,2-0.8,3.9-2.2,5.3c-1.4,1.4-3.3,2.2-5.3,2.2c-2,0-3.9-0.8-5.3-2.2c-1.4-1.4-2.2-3.3-2.2-5.3C163.9,168.9,164.7,167,166.1,165.6
			z M138.7,196.2c-1.4,1.4-3.3,2.2-5.3,2.2s-3.9-0.8-5.3-2.2c-1.4-1.4-2.2-3.3-2.2-5.3c0-2,0.8-3.9,2.2-5.3c1.4-1.4,3.3-2.2,5.3-2.2
			c2,0,3.9,0.8,5.3,2.2c1.4,1.4,2.2,3.3,2.2,5.3C140.9,192.9,140.1,194.8,138.7,196.2z M156.4,213.5c-1.4-1.4-2.2-3.3-2.2-5.3
			c0-2,0.8-3.9,2.2-5.3c1.4-1.4,3.3-2.2,5.3-2.2c2,0,3.9,0.8,5.3,2.2c1.4,1.4,2.2,3.3,2.2,5.3s-0.8,3.9-2.2,5.3
			c-1.4,1.4-3.3,2.2-5.3,2.2C159.7,215.7,157.8,214.9,156.4,213.5z"/>
		<path class="st1" d="M212.4,54.6c4.1,0,7.5-3.4,7.5-7.5V7.5c0-4.1-3.4-7.5-7.5-7.5s-7.5,3.4-7.5,7.5v39.6
			C204.9,51.2,208.3,54.6,212.4,54.6z"/>
		<path class="st1" d="M175.6,60.2c1.5,1.5,3.4,2.2,5.3,2.2c1.9,0,3.8-0.7,5.3-2.2c2.9-2.9,2.9-7.7,0-10.6l-28-28
			c-2.9-2.9-7.7-2.9-10.6,0c-2.9,2.9-2.9,7.7,0,10.6L175.6,60.2z"/>
		<path class="st1" d="M244,62.4c1.9,0,3.8-0.7,5.3-2.2l28-28c2.9-2.9,2.9-7.7,0-10.6c-2.9-2.9-7.7-2.9-10.6,0l-28,28
			c-2.9,2.9-2.9,7.7,0,10.6C240.1,61.7,242.1,62.4,244,62.4z"/>
		<path class="st0" d="M312.7,278c5.4-7.6,7.4-16.8,5.8-26l-19.3-111.5l-68.5,11.9L250,263.9c2.9,16.7,17.3,28.9,34.2,28.9
			c2,0,4-0.2,6-0.5C299.3,290.6,307.3,285.6,312.7,278z M256.3,171.1c-1.4,1.4-3.3,2.2-5.3,2.2c-2,0-3.9-0.8-5.3-2.2
			c-1.4-1.4-2.2-3.3-2.2-5.3c0-2,0.8-3.9,2.2-5.3c1.4-1.4,3.3-2.2,5.3-2.2c2,0,3.9,0.8,5.3,2.2c1.4,1.4,2.2,3.3,2.2,5.3
			C258.5,167.8,257.7,169.7,256.3,171.1z M280.2,198.7c-1.4,1.4-3.3,2.2-5.3,2.2c-2,0-3.9-0.8-5.3-2.2c-1.4-1.4-2.2-3.3-2.2-5.3
			c0-2,0.8-3.9,2.2-5.3c1.4-1.4,3.3-2.2,5.3-2.2c2,0,3.9,0.8,5.3,2.2c1.4,1.4,2.2,3.3,2.2,5.3C282.4,195.4,281.6,197.3,280.2,198.7z
			 M284,165.8c0-2,0.8-3.9,2.2-5.3c1.4-1.4,3.3-2.2,5.3-2.2c2,0,3.9,0.8,5.3,2.2c1.4,1.4,2.2,3.3,2.2,5.3c0,2-0.8,3.9-2.2,5.3
			c-1.4,1.4-3.3,2.2-5.3,2.2c-2,0-3.9-0.8-5.3-2.2C284.8,169.7,284,167.8,284,165.8z"/>
		<path class="st1" d="M171.4,178.4c2,0,3.9-0.8,5.3-2.2c1.4-1.4,2.2-3.3,2.2-5.3s-0.8-3.9-2.2-5.3c-1.4-1.4-3.3-2.2-5.3-2.2
			c-2,0-3.9,0.8-5.3,2.2c-1.4,1.4-2.2,3.3-2.2,5.3c0,2,0.8,3.9,2.2,5.3C167.5,177.6,169.4,178.4,171.4,178.4z"/>
		<path class="st1" d="M353.7,396.8l-41.1-19.3L300,305.1c10-3.3,18.7-9.7,24.9-18.5c7.7-10.9,10.6-24.1,8.4-37.2L304,80.3
			c-0.7-4.1-4.6-6.8-8.7-6.1l-82.9,14.4l-82.9-14.4c-4.1-0.7-8,2-8.7,6.1L91.6,249.4c-4.2,24.5,10.3,48.1,33.3,55.7l-12.5,72.4
			l-41.1,19.3c-3,1.4-4.7,4.5-4.2,7.8c0.4,3.2,2.9,5.8,6.2,6.4l79.6,13.8c0.4,0.1,0.9,0.1,1.3,0.1c0.1,0,0.1,0,0.2,0
			c4.1-0.1,7.3-3.4,7.3-7.5c0-2.2-1-4.3-2.6-5.6l-31.9-31.7l12.5-72.4c0.4,0,0.7,0,1.1,0c24.2,0,44.9-17.4,49-41.3l22.8-131.4
			l22.8,131.4c4.1,23.9,24.8,41.3,49,41.3h0c0.4,0,0.7,0,1.1,0l12.5,72.4l-32.2,32c-2.3,2.3-2.9,5.9-1.4,8.8
			c1.3,2.5,3.9,4.1,6.7,4.1c0.4,0,0.9,0,1.3-0.1l79.6-13.8c3.2-0.6,5.7-3.1,6.2-6.4C358.3,401.4,356.6,398.2,353.7,396.8z
			 M134.4,90.2l68.5,11.9l-6.1,35.5l-68.5-11.9L134.4,90.2z M134.7,292.2c-18.9-3.3-31.6-21.3-28.3-40.2l19.3-111.5l68.5,11.9
			l-19.3,111.5c-2.9,16.7-17.3,28.8-34.2,28.8C138.7,292.7,136.7,292.5,134.7,292.2z M131.8,405.9l-32.7-5.7l18.3-8.6L131.8,405.9z
			 M250,263.9l-19.3-111.5l68.5-11.9L318.5,252c1.6,9.2-0.5,18.4-5.8,26c-5.4,7.6-13.3,12.6-22.5,14.2c-2,0.3-4,0.5-6,0.5
			C267.3,292.7,252.9,280.6,250,263.9z M290.5,90.2l6.1,35.5l-68.5,11.9l-6.1-35.5L290.5,90.2z M293.1,405.9l14.4-14.3l18.3,8.6
			L293.1,405.9z"/>
		<path class="st1" d="M251,158.3c-2,0-3.9,0.8-5.3,2.2c-1.4,1.4-2.2,3.3-2.2,5.3c0,2,0.8,3.9,2.2,5.3c1.4,1.4,3.3,2.2,5.3,2.2
			c2,0,3.9-0.8,5.3-2.2c1.4-1.4,2.2-3.3,2.2-5.3c0-2-0.8-3.9-2.2-5.3C254.9,159.1,253,158.3,251,158.3z"/>
		<path class="st1" d="M296.8,171.1c1.4-1.4,2.2-3.3,2.2-5.3c0-2-0.8-3.9-2.2-5.3c-1.4-1.4-3.3-2.2-5.3-2.2c-2,0-3.9,0.8-5.3,2.2
			c-1.4,1.4-2.2,3.3-2.2,5.3c0,2,0.8,3.9,2.2,5.3c1.4,1.4,3.3,2.2,5.3,2.2C293.4,173.3,295.4,172.5,296.8,171.1z"/>
		<path class="st1" d="M274.9,185.9c-2,0-3.9,0.8-5.3,2.2c-1.4,1.4-2.2,3.3-2.2,5.3c0,2,0.8,3.9,2.2,5.3c1.4,1.4,3.3,2.2,5.3,2.2
			c2,0,3.9-0.8,5.3-2.2c1.4-1.4,2.2-3.3,2.2-5.3c0-2-0.8-3.9-2.2-5.3C278.8,186.7,276.9,185.9,274.9,185.9z"/>
		<path class="st1" d="M133.4,183.4c-2,0-3.9,0.8-5.3,2.2c-1.4,1.4-2.2,3.3-2.2,5.3c0,2,0.8,3.9,2.2,5.3c1.4,1.4,3.3,2.2,5.3,2.2
			s3.9-0.8,5.3-2.2c1.4-1.4,2.2-3.3,2.2-5.3c0-2-0.8-3.9-2.2-5.3C137.3,184.2,135.4,183.4,133.4,183.4z"/>
		<path class="st1" d="M169.2,208.2c0-2-0.8-3.9-2.2-5.3c-1.4-1.4-3.3-2.2-5.3-2.2c-2,0-3.9,0.8-5.3,2.2c-1.4,1.4-2.2,3.3-2.2,5.3
			c0,2,0.8,3.9,2.2,5.3c1.4,1.4,3.3,2.2,5.3,2.2c2,0,3.9-0.8,5.3-2.2C168.4,212.1,169.2,210.1,169.2,208.2z"/>
	</g>
</g>
</svg>
