<svg id="phone" data-name="phone" xmlns="http://www.w3.org/2000/svg" viewBox="0 0 378.48 369.87"><defs><style>.cls-1{fill:none;}.cls-2{fill:#afc1ac;}</style></defs><title>phone</title><path class="cls-1" d="M196.23,220.91c-9.74-17.46-9.21-32.11-6.85-41.59,4.84-19.47,22-33.6,40.7-33.6,10.31,0,19.79,4.07,27.55,11.65,10.92-27.71.85-51.55-16.63-62-14.29-8.52-36.62-9.4-52.54,16.16a7.5,7.5,0,0,1-12.73,0c-10.29-16.51-25.23-24.07-41-20.72C118,94.38,105,109.18,102.4,127.64c-2.29,16.37,1,58.68,79.7,101.48Q189.47,225.11,196.23,220.91Z" transform="translate(0 -4.31)"/><path class="cls-2" d="M347,4.31H74.57a31.54,31.54,0,0,0-31.5,31.5V282.15L.85,363.21a7.5,7.5,0,0,0,9.1,10.55l98.73-34H347a31.54,31.54,0,0,0,31.5-31.5V35.81A31.54,31.54,0,0,0,347,4.31Zm16.5,303.91a16.52,16.52,0,0,1-16.5,16.5H107.41a7.51,7.51,0,0,0-2.44.41L22.84,353.45l34.38-66a7.5,7.5,0,0,0,.85-3.46V35.81a16.52,16.52,0,0,1,16.5-16.5H347a16.52,16.52,0,0,1,16.5,16.5Z" transform="translate(0 -4.31)"/><path class="cls-2" d="M288.53,145.72A37.54,37.54,0,0,0,276,147.85c5.51-29-7.46-53.47-27.36-65.33-18.91-11.28-46.56-11.37-66.6,12.34-13.41-15.76-31.66-22.68-50.45-18.7C108.71,81,91,100.88,87.54,125.57c-2.76,19.74.59,70.82,91,118.7a7.5,7.5,0,0,0,7,0c6.68-3.53,13.07-7.2,19.09-10.94,11.53,14.32,28.66,27.57,51.11,39.45a7.5,7.5,0,0,0,7,0c26.61-14.09,45.78-30.08,57-47.53,12.42-19.37,12-35.67,9.44-45.92C324.39,159.85,307.27,145.72,288.53,145.72ZM102.4,127.64C105,109.18,118,94.38,134.74,90.83c15.76-3.34,30.7,4.21,41,20.72a7.5,7.5,0,0,0,12.73,0C204.38,86,226.71,86.88,241,95.4c17.49,10.43,27.56,34.27,16.63,62-7.76-7.58-17.24-11.65-27.55-11.65-18.75,0-35.86,14.13-40.7,33.6-2.35,9.48-2.89,24.13,6.85,41.59q-6.76,4.18-14.14,8.21C103.44,186.32,100.11,144,102.4,127.64Zm156.91,130c-60.27-33.16-57.66-65.45-55.37-74.69,3.2-12.87,14.19-22.22,26.14-22.22,8.84,0,17,5.22,22.86,14.69a7.5,7.5,0,0,0,12.73,0c5.9-9.47,14-14.69,22.86-14.69,11.95,0,22.94,9.34,26.14,22.22C317,192.18,319.57,224.47,259.3,257.63Z" transform="translate(0 -4.31)"/></svg>