<?xml version="1.0" encoding="utf-8"?>
<!-- Generator: Adobe Illustrator 21.0.2, SVG Export Plug-In . SVG Version: 6.00 Build 0)  -->
<svg version="1.1" id="registry" name="registry" xmlns="http://www.w3.org/2000/svg" xmlns:xlink="http://www.w3.org/1999/xlink" x="0px" y="0px"
	 viewBox="0 0 345 352.8" style="enable-background:new 0 0 345 352.8;" xml:space="preserve">
<style type="text/css">
	.st0{fill:none;}
	.st1{fill:#AFC1AC;}
</style>
<title>registry</title>
<path class="st0" d="M164.5,55.8c-1.7-8.9-6.8-18-14.5-25.7c-9.4-9.4-21.2-15.1-31.4-15.1c-3.8,0-9,0.8-12.9,4.7
	c-9.2,9.2-4.5,29.5,10.4,44.3c9.4,9.5,21.2,15.1,31.4,15.1c3.8,0,9-0.8,12.9-4.7C164.5,70.3,165.9,63.6,164.5,55.8z"/>
<path class="st0" d="M229,64c7.7-7.7,12.8-16.8,14.5-25.7c1.5-7.9,0-14.5-4.1-18.6c-3.9-3.9-9.2-4.7-12.9-4.7
	c-10.2,0-22,5.6-31.4,15.1c-14.8,14.9-19.6,35.2-10.4,44.4c3.9,3.9,9.2,4.7,12.9,4.7C207.9,79.1,219.6,73.5,229,64z"/>
<rect x="155.8" y="94.1" class="st0" width="33.4" height="243.6"/>
<path class="st1" d="M313.9,79.1h-79.1c1.7-1.4,3.3-2.9,4.9-4.4c9.8-9.8,16.4-21.7,18.6-33.5c2.4-12.9-0.5-24.3-8.3-32
	C244.1,3.1,236,0,226.5,0c-14.1,0-29.9,7.3-42,19.5c-4.7,4.7-8.7,9.9-12,15.7c-3.2-5.7-7.3-11-11.9-15.7C148.4,7.3,132.7,0,118.5,0
	c-9.4,0-17.6,3.1-23.5,9.1c-15.5,15.5-10.9,44.3,10.4,65.6c1.6,1.6,3.2,3.1,4.9,4.4H31.1C14,79.1,0,93,0,110.2v8.1
	c0,17.2,13.9,31.1,31.1,31.1h4.6v172.2c0,17.2,13.9,31.1,31.1,31.1h211.4c17.2,0,31.1-13.9,31.1-31.1V149.4h4.6
	c17.2,0,31.1-13.9,31.1-31.1v-8.1C345,93,331.1,79.1,313.9,79.1z M195.1,30.1c9.4-9.5,21.2-15.1,31.4-15.1c3.8,0,9,0.8,12.9,4.7
	c4.1,4.1,5.6,10.8,4.1,18.6c-1.7,8.9-6.8,18-14.5,25.7c-9.4,9.4-21.2,15.1-31.4,15.1c-3.8,0-9-0.8-12.9-4.7
	C175.5,65.2,180.2,44.9,195.1,30.1L195.1,30.1z M116,64.1c-14.8-14.9-19.6-35.2-10.4-44.4c3.9-3.9,9.2-4.7,12.9-4.7
	c10.3,0,22,5.6,31.4,15.1c7.7,7.7,12.8,16.8,14.5,25.7c1.5,7.9,0,14.5-4.1,18.6c-3.9,3.9-9.2,4.7-12.9,4.7
	C137.1,79.1,125.4,73.5,116,64.1L116,64.1z M140.8,337.8h-74c-8.9,0-16.1-7.2-16.1-16.1V149.4h90.1V337.8L140.8,337.8z M140.8,134.5
	H31.1c-8.9,0-16.1-7.2-16.1-16.1v-8.1c0-8.9,7.2-16.1,16.1-16.2l0,0h109.7V134.5z M189.2,337.8h-33.4V94.1h33.4L189.2,337.8
	L189.2,337.8z M294.3,321.7c0,8.9-7.2,16.1-16.1,16.1h-74V149.4h90.1V321.7z M330,118.3c0,8.9-7.2,16.1-16.1,16.1H204.2V94.1h109.7
	c8.9,0,16.1,7.2,16.1,16.1V118.3z"/>
</svg>
