<svg id="rsvp" data-name="rsvp" xmlns="http://www.w3.org/2000/svg" viewBox="0 0 327.3 378.2"><defs><style>.cls-1{fill:none;}.cls-2{fill:#afc1ac;}</style></defs><title>rsvp</title><path class="cls-1" d="M295.2,173.7V99.5h-77a7.55,7.55,0,0,1-7.5-7.5V15H83V173.7l106.1,80.6ZM185.5,209.1c-19.8-10.8-34-23-42.3-36.2-9.4-15-9-27.5-6.9-35.4,3.9-15.2,16.8-25.7,31.4-25.7a30.75,30.75,0,0,1,21.5,9.1c6.1-5.9,13.5-9.1,21.5-9.1,14.6,0,27.5,10.6,31.4,25.7,2,7.9,2.4,20.5-7,35.4-8.3,13.3-22.6,25.4-42.3,36.2a7.68,7.68,0,0,1-3.6.9A8.08,8.08,0,0,1,185.5,209.1Z" transform="translate(-25.5)"/><path class="cls-2" d="M339.8,147h0l-29.7-24.2V92a7.49,7.49,0,0,0-2.2-5.3L223.5,2.2A7.49,7.49,0,0,0,218.2,0H75.5A7.55,7.55,0,0,0,68,7.5V123.1a6.07,6.07,0,0,0-1,.7L38.4,147h0a34.18,34.18,0,0,0-12.9,26.8V343.9a34.36,34.36,0,0,0,34.3,34.3H318.5a34.36,34.36,0,0,0,34.3-34.3V173.8A34.13,34.13,0,0,0,339.8,147Zm-29.6-4.8L323,152.6l-12.8,9.7ZM83,15H210.6V92a7.55,7.55,0,0,0,7.5,7.5h77v74.2L189,254.3,83,173.7ZM225.7,25.6l58.9,58.9H225.7V25.6ZM68,142.2v20l-12.8-9.7ZM40.4,343.9V173.8a18.7,18.7,0,0,1,3.5-11L176.1,263.3l-134,88.6A21.62,21.62,0,0,1,40.4,343.9Zm278,19.3H59.8a20.51,20.51,0,0,1-6.1-1l135.4-89.5,135.4,89.5A20,20,0,0,1,318.4,363.2Zm19.4-19.3a19,19,0,0,1-1.7,7.9l-134-88.6L334.3,162.7a19.43,19.43,0,0,1,3.5,11Z" transform="translate(-25.5)"/><path class="cls-2" d="M235,172.8c9.4-15,9-27.5,7-35.4-3.9-15.2-16.8-25.7-31.4-25.7-8,0-15.4,3.2-21.5,9.1a30.4,30.4,0,0,0-21.5-9.1c-14.6,0-27.5,10.6-31.4,25.7-2,7.9-2.4,20.5,6.9,35.4,8.3,13.3,22.6,25.4,42.3,36.2a7.65,7.65,0,0,0,7.2,0C212.5,198.3,226.7,186.1,235,172.8Zm-84.2-31.7c2.1-8.4,9.2-14.4,16.9-14.4,5.8,0,11.1,3.6,15.1,10.1a7.64,7.64,0,0,0,6.4,3.6h0a7.51,7.51,0,0,0,6.4-3.6c3.9-6.5,9.3-10.1,15.1-10.1,7.6,0,14.7,6.1,16.9,14.4,1.6,6.4,3.5,28.7-38.4,52.8C147.3,169.8,149.1,147.5,150.8,141.1Z" transform="translate(-25.5)"/></svg>