<svg id="wedding" data-name="wedding" xmlns="http://www.w3.org/2000/svg" viewBox="0 0 273.62 375.3"><defs><style>.cls-1{fill:none;}.cls-2{fill:#afc1ac;}</style></defs><title>wedding</title><path class="cls-1" d="M281.6,360.2V207.3H220.3v38.9a184.13,184.13,0,0,1,3.9,37.5v76.6h9.4l10-121.3a7.53,7.53,0,0,1,15,0l10,121.3h13Z" transform="translate(-50.8)"/><polygon class="cls-1" points="192.7 192 192.7 116.3 179.5 86.9 163.6 86.9 168.5 192 192.7 192"/><polygon class="cls-1" points="246.6 199.2 257.3 199.2 248.9 148.1 246.6 199.2"/><path class="cls-1" d="M199.7,195.5c2,3,3.8,6.1,5.6,9.3v-2a6.81,6.81,0,0,1-.7-2.8l-3.3-70.8L192.2,164c0,.1,0,.1-.1.1l4.9,27.7C198,193,198.8,194.2,199.7,195.5Z" transform="translate(-50.8)"/><polygon class="cls-1" points="207.7 116.3 207.7 192 231.9 192 236.8 86.9 220.8 86.9 207.7 116.3"/><path class="cls-2" d="M324.3,205.5,302.8,78.4h0a7.23,7.23,0,0,0-2-4.1,7.41,7.41,0,0,0-5.4-2.3H258.5V66.5c12.2-3.9,21.3-17.1,21.3-32.7C279.7,15.2,266.8,0,251,0s-28.8,15.2-28.8,33.8c0,15.6,9,28.8,21.3,32.7V72H206.6a7.25,7.25,0,0,0-5.4,2.3,7.15,7.15,0,0,0-1.8,3.3h0l-9.1,34.9V76c0-16.3-4.5-33.8-11.9-46.9-9.7-17-24.2-26.3-40.8-26.3s-31.1,9.3-40.8,26.3c-7.6,13.1-12,30.6-12,46.9v46.5a7.32,7.32,0,0,0,4,6.6L76.3,194c-.3.5-.7,1-1,1.5-15.8,23.7-24.5,55-24.5,88.2v84.1a7.55,7.55,0,0,0,7.5,7.5H240.5a7.52,7.52,0,0,0,7.5-6.9l3-37.4,3.1,37.3a7.52,7.52,0,0,0,7.5,6.9h27.6a7.55,7.55,0,0,0,7.5-7.5V214.2H317a7.65,7.65,0,0,0,5.7-2.6A7.54,7.54,0,0,0,324.3,205.5ZM251,232.1a7.52,7.52,0,0,0-7.5,6.9l-10,121.3h-9.4V283.7a177.33,177.33,0,0,0-3.9-37.5V207.3h61.3V360.2H268.3l-10-121.3A7.18,7.18,0,0,0,251,232.1ZM230.3,86.9l13.1,29.3V192H219.2L214.3,86.9ZM251,96.3l-4.2-9.4h8.4ZM282.7,192H258.5V116.2l13.1-29.3h15.9ZM237.2,33.8c0-10.2,6.3-18.8,13.8-18.8s13.8,8.6,13.8,18.8S258.5,52.6,251,52.6,237.2,44,237.2,33.8Zm-45,130.1,9.1-34.8,3.3,70.8a6.44,6.44,0,0,0,.7,2.8v2c-1.8-3.2-3.6-6.3-5.6-9.3-.9-1.3-1.7-2.5-2.6-3.7L192.2,164Zm-13.8,8.2a71.36,71.36,0,0,0-14-8.6c.9-4.4,3.4-13.9,8.9-20.5Zm-40.9-58.5a8.22,8.22,0,0,0,2.7-.2c13.2-3.6,22.7-2.2,26.2,4,2.5,4.4,1.2,10.1-1.5,12.7-9,8.6-13.1,21.5-14.8,28.6a61.71,61.71,0,0,0-25.2,0c-1.7-7.2-5.7-20.1-14.8-28.6-2.7-2.6-4-8.3-1.5-12.7,3.5-6.1,13-7.6,26.2-4A8.22,8.22,0,0,0,137.5,113.6ZM124.8,59.7c0-8.8,5.7-15.9,12.6-15.9S150,50.9,150,59.7s-5.7,15.9-12.6,15.9S124.8,68.5,124.8,59.7ZM99.8,76c0-23.5,12-58.2,37.7-58.2S175.2,52.5,175.2,76v28.5c-5-4.9-13.9-9.7-29.5-7.6V89.2c11.2-3.9,19.4-15.7,19.4-29.5,0-17-12.4-30.9-27.6-30.9s-27.6,13.9-27.6,30.9c0,14.4,8.9,26.5,20.8,29.9v7.5c-16.4-2.6-25.8,2.4-30.9,7.4V76Zm1.6,66.7c5.7,6.6,8.2,16.4,9.1,20.8a71.57,71.57,0,0,0-14.9,9.4ZM209.2,360.2H65.8V283.6c0-30.3,7.8-58.6,21.9-79.8,13.5-20.3,31.2-31.5,49.8-31.5s36.5,11,49.8,31.5c18.3,28.3,21.9,68.5,21.9,79.8v76.6Zm88.2-161,2.4-51.1,8.4,51.1H297.4Z" transform="translate(-50.8)"/></svg>